<?xml version='1.0' encoding='iso-8859-1'?>
<svg fill="#fff" version="1.1" xmlns="http://www.w3.org/2000/svg" viewBox="0 0 225.47 225.47" xmlns:xlink="http://www.w3.org/1999/xlink" enable-background="new 0 0 225.47 225.47">
  <g>
    <g>
      <g>
        <path d="m112.708,26.762c-37.21,0-67.48,30.275-67.48,67.49s30.27,67.49 67.48,67.49c37.215,0 67.49-30.275 67.49-67.49 2.84217e-14-37.215-30.275-67.49-67.49-67.49zm0,124.945c-31.675,0-57.444-25.774-57.444-57.454s25.769-57.454 57.444-57.454c31.68,0 57.454,25.774 57.454,57.454s-25.769,57.454-57.454,57.454z"/>
        <path d="m179.36,27.61c-17.799-17.804-41.47-27.61-66.642-27.61-25.182,0-48.848,9.806-66.652,27.61-36.749,36.749-36.749,96.546 0,133.295l63.094,63.095c0.943,0.943 2.213,1.47 3.548,1.47 1.335,0 2.609-0.527 3.548-1.47l63.099-63.099c17.805-17.8 27.61-41.471 27.61-66.647 0.001-25.178-9.805-48.849-27.605-66.644zm-7.1,126.194l-59.552,59.552-59.547-59.552c-32.834-32.834-32.834-86.264 0-119.098 15.908-15.908 37.06-24.67 59.557-24.67 22.492,0 43.639,8.762 59.547,24.67 15.903,15.903 24.665,37.05 24.665,59.547s-8.763,43.643-24.67,59.551z"/>
      </g>
    </g>
  </g>
</svg>
